<?xml version="1.0" standalone="yes"?>
<svg xmlns="http://www.w3.org/2000/svg" width="512" height="512">
<path style="fill:#ffffff; stroke:none;" d="M0 0L0 512L162 512C116.735 436.027 167.511 344.721 196.2 273C201.059 260.853 205.384 248.328 212.012 237C214.791 232.25 221.802 225.548 222.039 220C222.351 212.685 215.763 202.67 213.011 196C205.68 178.234 200.032 158.959 191 142C180.011 148.321 171.189 155.51 158 156.829C110.043 161.628 78.9154 110.453 75.1705 69C72.6698 41.319 91.6659 3.6651 122 1C112.211 -3.10773 95.634 0 85 0L0 0z"/>
<path style="fill:#de827f; stroke:none;" d="M122 0L122 1L126 1L122 0z"/>
<path style="fill:#f94c48; stroke:none;" d="M192 141L201 164C209.859 159.404 217.617 150.625 225 143.925C227.675 141.498 232.258 138.609 233.292 134.961C234.412 131.006 230.832 125.577 229.4 122C224.987 110.977 220.539 99.9745 216.011 89C208.389 70.529 202.462 50.5238 190.961 34C173.247 8.55136 140.226 -8.33063 110 4.87579C90.5934 13.3549 80.2301 32.9677 76.9198 53C70.6822 90.7456 91.6767 134.648 127 150.688C151.857 161.975 170.399 153.427 192 141z"/>
<path style="fill:#de827f; stroke:none;" d="M138 0L138 1L142 1L138 0z"/>
<path style="fill:#ffffff; stroke:none;" d="M142 0L142 1C168.859 3.19672 191.244 28.9149 201.28 52C214.331 82.0207 226.054 112.681 238.397 143C243.893 156.503 247.93 172.848 256 185C264.07 172.848 268.107 156.503 273.603 143C285.946 112.681 297.669 82.0207 310.72 52C320.756 28.9149 343.141 3.19675 370 1L349 0L303 0L142 0z"/>
<path style="fill:#de827f; stroke:none;" d="M370 0L370 1L375 1L370 0z"/>
<path style="fill:#f94c48; stroke:none;" d="M311 164L320 141C338.754 149.694 350.488 160.157 372.83 155.29C380.24 153.676 386.702 148.206 394 147L407 137L411 133L419 123L421 120L423 117L429.316 100.996L436.089 73L431 34L429 34L430 32L427 26L413 10C406.831 8.93646 401.232 4.18713 395 2.42825C378.272 -2.2926 361.864 1.36807 347 9.87268C314.422 28.5122 304.277 68.4071 291.2 101C288.01 108.951 276.622 126.474 278.789 134.961C279.722 138.617 284.35 141.521 287 143.925C294.499 150.73 302.228 158.93 311 164z"/>
<path style="fill:#de827f; stroke:none;" d="M385 0L385 1L390 1L385 0z"/>
<path style="fill:#ffffff; stroke:none;" d="M390 0L390 1C420.504 3.68008 439.962 42.1121 436.715 70C431.93 111.088 402.166 161.646 354 156.829C340.744 155.504 332.054 148.358 321 142C312.273 158.387 307.054 176.938 299.719 194C296.684 201.061 289.682 212.247 289.958 220C290.17 225.933 297.66 232.912 300.573 238C307.07 249.351 311.357 261.89 316.2 274C344.798 345.504 395.11 436.287 350 512L512 512L512 0L390 0z"/>
<path style="fill:#de827f; stroke:none;" d="M117 1L117 2L120 2L117 1M144 1L144 2L147 2L144 1M365 1L365 2L368 2L365 1M391 1L391 2L395 2L391 1M114 2L114 3L117 3L114 2M148 2L148 3L151 3L148 2M361 2L361 3L364 3L361 2M395 2L395 3L398 3L395 2M112.667 3.33334L113.333 3.66666L112.667 3.33334M151.667 3.33334L152.333 3.66666L151.667 3.33334M359.667 3.33334L360.333 3.66666L359.667 3.33334M398.667 3.33334L399.333 3.66666L398.667 3.33334M109.667 4.33334L110.333 4.66666L109.667 4.33334M154.667 4.33334L155.333 4.66666L154.667 4.33334M356.667 4.33334L357.333 4.66666L356.667 4.33334M401.667 4.33334L402.333 4.66666L401.667 4.33334M107.667 5.33334L108.333 5.66666L107.667 5.33334M157 5L158 6L157 5M354.667 5.33334L355.333 5.66666L354.667 5.33334M403.667 5.33334L404.333 5.66666L403.667 5.33334M105.667 6.33334L106.333 6.66666L105.667 6.33334M159 6L160 7L159 6M352.667 6.33334L353.333 6.66666L352.667 6.33334M405.667 6.33334L406.333 6.66666L405.667 6.33334M104 7L105 8L104 7M161 7L162 8L161 7M350.667 7.33334L351.333 7.66666L350.667 7.33334M407 7L408 8L407 7M102.667 8.33334L103.333 8.66666L102.667 8.33334M163 8L164 9L163 8M348.667 8.33334L349.333 8.66666L348.667 8.33334M408.667 8.33334L409.333 8.66666L408.667 8.33334M101 9L102 10L101 9M164.667 9.33334L165.333 9.66666L164.667 9.33334M346.667 9.33334L347.333 9.66666L346.667 9.33334M410 9L411 10L410 9M99.6667 10.3333L100.333 10.6667L99.6667 10.3333M166 10L167 11L166 10M345 10L346 11L345 10M411 10L412 11L411 10M98 11L99 12L98 11M168 11L169 12L168 11M343.667 11.3333L344.333 11.6667L343.667 11.3333M412.667 11.3333L413.333 11.6667L412.667 11.3333M97 12L98 13L97 12M169 12L170 13L169 12M342 12L343 13L342 12M414 12L415 13L414 12M96 13L97 14L96 13M170.667 13.3333L171.333 13.6667L170.667 13.3333M340.667 13.3333L341.333 13.6667L340.667 13.3333M415 13L416 14L415 13M95 14L96 15L95 14M172 14L173 15L172 14M339 14L340 15L339 14M416 14L417 15L416 14M94 15L95 16L94 15M173 15L174 16L173 15M338 15L339 16L338 15M417 15L418 16L417 15M93 16L94 17L93 16M174.667 16.3333L175.333 16.6667L174.667 16.3333M335 18L338 16L335 18M418 16L419 17L418 16M92 17L93 18L92 17M176 17L177 18L176 17M419 17L420 18L419 17M91 18L92 19L91 18M177 18L178 19L177 18M334 18L335 19L334 18M420 18L421 19L420 18M90 19L91 20L90 19M178 19L179 20L178 19M333 19L334 20L333 19M421.333 19.6667L421.667 20.3333L421.333 19.6667M179 20L180 21L179 20M332 20L333 21L332 20M89 21L90 22L89 21M180 21L181 22L180 21M331 21L332 22L331 21M422 21L423 22L422 21M88 22L89 23L88 22M181 22L182 23L181 22M330 22L331 23L330 22M423 22L424 23L423 22M87.3333 23.6667L87.6667 24.3333L87.3333 23.6667M182 23L183 24L182 23M329 23L330 24L329 23M424.333 23.6667L424.667 24.3333L424.333 23.6667M183 24L184 25L183 24M328 24L329 25L328 24M86 25L87 26L86 25M184 25L185 26L184 25M327 25L328 26L327 25M425 25L426 26L425 25M85.3333 26.6667L85.6667 27.3333L85.3333 26.6667M185 26L186 27L185 26M326 26L327 27L326 26M186.333 27.6667L186.667 28.3333L186.333 27.6667M325.333 27.6667L325.667 28.3333L325.333 27.6667M426 27L427 28L426 27M84.3333 28.6667L84.6667 29.3333L84.3333 28.6667M427.333 28.6667L427.667 29.3333L427.333 28.6667M187 29L188 30L187 29M324 29L325 30L324 29M83.3333 30.6667L83.6667 31.3333L83.3333 30.6667M188 30L189 31L188 30M323 30L324 31L323 30M428.333 30.6667L428.667 31.3333L428.333 30.6667M189 31L190 32L189 31M322 31L323 32L322 31M82.3333 32.6667L82.6667 33.3333L82.3333 32.6667M190.333 32.6667L190.667 33.3333L190.333 32.6667M321.333 32.6667L321.667 33.3333L321.333 32.6667M429 33L430 34L429 33M81.3333 34.6667L81.6667 35.3333L81.3333 34.6667M191 34L192 35L191 34M320 34L321 35L320 34M192.333 35.6667L192.667 36.3333L192.333 35.6667M319.333 35.6667L319.667 36.3333L319.333 35.6667M430 35L431 36L430 35M80.3333 37.6667L80.6667 38.3333L80.3333 37.6667M193 37L194 38L193 37M318 37L319 38L318 37M431.333 37.6667L431.667 38.3333L431.333 37.6667M194.333 38.6667L194.667 39.3333L194.333 38.6667M317.333 38.6667L317.667 39.3333L317.333 38.6667M79.3333 40.6667L79.6667 41.3333L79.3333 40.6667M195.333 40.6667L195.667 41.3333L195.333 40.6667M316.333 40.6667L316.667 41.3333L316.333 40.6667M432.333 40.6667L432.667 41.3333L432.333 40.6667M196 42L197 43L196 42M315.333 42.6667L315.667 43.3333L315.333 42.6667M78.3333 43.6667L78.6667 44.3333L78.3333 43.6667M433 43L433 46L434 46L433 43M197 44L198 45L197 44M314 44L315 45L314 44M133 45L133 46L141 46L133 45M198.333 45.6667L198.667 46.3333L198.333 45.6667M313.333 45.6667L313.667 46.3333L313.333 45.6667M371 45L371 46L375 46L371 45M376 45L376 46L379 46L376 45M122 52L131 47L122 52z"/>
<path style="fill:#ffffff; stroke:none;" d="M131 46.6528C100.106 56.2929 122.52 118.971 153 110.211C185.291 100.93 162.627 36.7838 131 46.6528z"/>
<path style="fill:#de827f; stroke:none;" d="M142 46L142 47L145 47L142 46M356 55L370 47C364.657 45.5349 358.427 50.5003 356 55z"/>
<path style="fill:#ffffff; stroke:none;" d="M370 46.5293C351.497 50.7768 343.268 72.0255 344.039 89C344.613 101.609 354.503 113.396 368 110.319C386.138 106.185 395.081 87.0562 394.999 70C394.931 55.8997 385.39 42.9964 370 46.5293z"/>
<path style="fill:#de827f; stroke:none;" d="M381.667 46.3333L382.333 46.6667L381.667 46.3333M77 47L77 50L78 50L77 47M145.667 47.3333L146.333 47.6667L145.667 47.3333M199.333 47.6667L199.667 48.3333L199.333 47.6667M312.333 47.6667L312.667 48.3333L312.333 47.6667M383.667 47.3333L384.333 47.6667L383.667 47.3333M434 47L434 50L435 50L434 47M147.667 48.3333L148.333 48.6667L147.667 48.3333M385 48L386 49L385 48M149 49L150 50L149 49M386 49L390 52L386 49M151 50L152 51L151 50M200 50L201 51L200 50M311.333 50.6667L311.667 51.3333L311.333 50.6667M152 51L153 52L152 51M76 52L76 56L77 56L76 52M153 52L154 53L153 52M201.333 52.6667L201.667 53.3333L201.333 52.6667M310.333 52.6667L310.667 53.3333L310.333 52.6667M121 53L122 54L121 53M154 53L155 54L154 53M390 53L391 54L390 53M435 53L435 57L436 57L435 53M120.333 54.6667L120.667 55.3333L120.333 54.6667M155 54L156 55L155 54M202.333 54.6667L202.667 55.3333L202.333 54.6667M309.333 54.6667L309.667 55.3333L309.333 54.6667M391.333 54.6667L391.667 55.3333L391.333 54.6667M156 55L157 56L156 55M119 56L120 57L119 56M157 56L158 57L157 56M354 56L355 57L354 56M392 56L393 57L392 56M158 57L159 58L158 57M203.333 57.6667L203.667 58.3333L203.333 57.6667M308.333 57.6667L308.667 58.3333L308.333 57.6667M353 57L354 58L353 57M118.333 58.6667L118.667 59.3333L118.333 58.6667M159 58L160 59L159 58M352 58L353 59L352 58M393.333 58.6667L393.667 59.3333L393.333 58.6667M160.333 59.6667L160.667 60.3333L160.333 59.6667M204.333 59.6667L204.667 60.3333L204.333 59.6667M307.333 59.6667L307.667 60.3333L307.333 59.6667M351.333 59.6667L351.667 60.3333L351.333 59.6667M394 60L394 63L395 63L394 60M75 61L75 72L76 72L75 61M117.333 61.6667L117.667 62.3333L117.333 61.6667M161 61L162 62L161 61M350 61L351 62L350 61M162.333 62.6667L162.667 63.3333L162.333 62.6667M205 62L206 63L205 62M306.333 62.6667L306.667 63.3333L306.333 62.6667M349.333 62.6667L349.667 63.3333L349.333 62.6667M436 63L436 71L437 71L436 63M163.333 64.6667L163.667 65.3333L163.333 64.6667M206.333 64.6667L206.667 65.3333L206.333 64.6667M305.333 64.6667L305.667 65.3333L305.333 64.6667M348.333 64.6667L348.667 65.3333L348.333 64.6667M395 64L395 78L396 78L395 64M116 65L116 78L117 78L116 65M164.333 66.6667L164.667 67.3333L164.333 66.6667M207.333 66.6667L207.667 67.3333L207.333 66.6667M304 66L304 69L305 69L304 66M347.333 66.6667L347.667 67.3333L347.333 66.6667M165.333 68.6667L165.667 69.3333L165.333 68.6667M346.333 68.6667L346.667 69.3333L346.333 68.6667M208.333 69.6667L208.667 70.3333L208.333 69.6667M303.333 69.6667L303.667 70.3333L303.333 69.6667M166.333 71.6667L166.667 72.3333L166.333 71.6667M209.333 71.6667L209.667 72.3333L209.333 71.6667M302 71L302 74L303 74L302 71M345.333 71.6667L345.667 72.3333L345.333 71.6667M167 74L167 77L168 77L167 74M210.333 74.6667L210.667 75.3333L210.333 74.6667M301.333 74.6667L301.667 75.3333L301.333 74.6667M344 74L344 77L345 77L344 74M435 75L435 80L436 80L435 75M76 76L76 81L77 81L76 76M211.333 76.6667L211.667 77.3333L211.333 76.6667M300.333 76.6667L300.667 77.3333L300.333 76.6667M343 78L343 92L344 92L343 78M168 79L168 91L169 91L168 79M212.333 79.6667L212.667 80.3333L212.333 79.6667M299.333 79.6667L299.667 80.3333L299.333 79.6667M117 80L117 83L118 83L117 80M394 80L394 83L395 83L394 80M213.333 81.6667L213.667 82.3333L213.333 81.6667M298.333 81.6667L298.667 82.3333L298.333 81.6667M434 82L434 86L435 86L434 82M77 83L77 86L78 86L77 83M118 83L118 86L119 86L118 83M393 83L393 86L394 86L393 83M214.333 84.6667L214.667 85.3333L214.333 84.6667M297.333 84.6667L297.667 85.3333L297.333 84.6667M119.333 86.6667L119.667 87.3333L119.333 86.6667M215.333 86.6667L215.667 87.3333L215.333 86.6667M296.333 86.6667L296.667 87.3333L296.333 86.6667M392 86L392 89L393 89L392 86M433 87L433 90L434 90L433 87M78.3333 88.6667L78.6667 89.3333L78.3333 88.6667M120 89L121 90L120 89M216.333 89.6667L216.667 90.3333L216.333 89.6667M295.333 89.6667L295.667 90.3333L295.333 89.6667M391.333 89.6667L391.667 90.3333L391.333 89.6667M79 91L79 94L80 94L79 91M121 91L122 92L121 91M217.333 91.6667L217.667 92.3333L217.333 91.6667M294.333 91.6667L294.667 92.3333L294.333 91.6667M390 91L391 92L390 91M432 91L432 94L433 94L432 91M122 93L123 94L122 93M167 93L167 96L168 96L167 93M344 93L344 96L345 96L344 93M389 93L390 94L389 93M123.333 94.6667L123.667 95.3333L123.333 94.6667M218 94L219 95L218 94M293.333 94.6667L293.667 95.3333L293.333 94.6667M388.333 94.6667L388.667 95.3333L388.333 94.6667M80.3333 95.6667L80.6667 96.3333L80.3333 95.6667M431.333 95.6667L431.667 96.3333L431.333 95.6667M124 96L125 97L124 96M219.333 96.6667L219.667 97.3333L219.333 96.6667M292.333 96.6667L292.667 97.3333L292.333 96.6667M387 96L388 97L387 96M125.333 97.6667L125.667 98.3333L125.333 97.6667M166.333 97.6667L166.667 98.3333L166.333 97.6667M345.333 97.6667L345.667 98.3333L345.333 97.6667M430 97L430 100L431 100L430 97M81.3333 98.6667L81.6667 99.3333L81.3333 98.6667M386 98L387 99L386 98M126 99L127 100L126 99M165.333 99.6667L165.667 100.333L165.333 99.6667M220 99L221 100L220 99M291.333 99.6667L291.667 100.333L291.333 99.6667M346.333 99.6667L346.667 100.333L346.333 99.6667M385 99L386 100L385 99M82.3333 100.667L82.6667 101.333L82.3333 100.667M127 100L128 101L127 100M384 100L385 101L384 100M429 100L429 103L430 103L429 100M128 101L129 102L128 101M164 101L165 102L164 101M221.333 101.667L221.667 102.333L221.333 101.667M290.333 101.667L290.667 102.333L290.333 101.667M347 101L348 102L347 101M383 101L384 102L383 101M129 102L130 103L129 102M382 102L383 103L382 102M83.3333 103.667L83.6667 104.333L83.3333 103.667M130 103L131 104L130 103M163 103L164 104L163 103M222.333 103.667L222.667 104.333L222.333 103.667M289 103L289 106L290 106L289 103M348 103L349 104L348 103M381 103L382 104L381 103M428.333 103.667L428.667 104.333L428.333 103.667M131 104L132 105L131 104M162 104L163 105L162 104M349 104L350 105L349 104M380 104L381 105L380 104M84.3333 105.667L84.6667 106.333L84.3333 105.667M133 105L134 106L133 105M161 105L162 106L161 105M350 105L351 106L350 105M427.333 105.667L427.667 106.333L427.333 105.667M134 106L135 107L134 106M160 106L161 107L160 106M223.333 106.667L223.667 107.333L223.333 106.667M288.333 106.667L288.667 107.333L288.333 106.667M351 106L352 107L351 106M377 106L378 107L377 106M85.3333 107.667L85.6667 108.333L85.3333 107.667M135.667 107.333L136.333 107.667L135.667 107.333M159 107L160 108L159 107M352 107L353 108L352 107M376 107L377 108L376 107M426 107L427 108L426 107M137.667 108.333L138.333 108.667L137.667 108.333M157.667 108.333L158.333 108.667L157.667 108.333M224.333 108.667L224.667 109.333L224.333 108.667M287.333 108.667L287.667 109.333L287.333 108.667M353.667 108.333L354.333 108.667L353.667 108.333M374 108L375 109L374 108M139.667 109.333L140.333 109.667L139.667 109.333M155.667 109.333L156.333 109.667L155.667 109.333M355.667 109.333L356.333 109.667L355.667 109.333M371.667 109.333L372.333 109.667L371.667 109.333M86 110L87 111L86 110M142 110L142 111L145 111L142 110M152 110L152 111L155 111L152 110M357.667 110.333L358.333 110.667L357.667 110.333M368 110L368 111L371 111L368 110M425 110L426 111L425 110M87.3333 111.667L87.6667 112.333L87.3333 111.667M225.333 111.667L225.667 112.333L225.333 111.667M286.333 111.667L286.667 112.333L286.333 111.667M361.667 111.333L362.333 111.667L361.667 111.333M364.667 111.333L365.333 111.667L364.667 111.333M424.333 111.667L424.667 112.333L424.333 111.667M88.3333 113.667L88.6667 114.333L88.3333 113.667M226.333 113.667L226.667 114.333L226.333 113.667M285.333 113.667L285.667 114.333L285.333 113.667M423.333 113.667L423.667 114.333L423.333 113.667M89.3333 115.667L89.6667 116.333L89.3333 115.667M422 115L423 116L422 115M227.333 116.667L227.667 117.333L227.333 116.667M284.333 116.667L284.667 117.333L284.333 116.667M90 117L91 118L90 117M421 117L422 118L421 117M91.3333 118.667L91.6667 119.333L91.3333 118.667M228.333 118.667L228.667 119.333L228.333 118.667M283.333 118.667L283.667 119.333L283.333 118.667M420 118L421 119L420 118M92 120L93 121L92 120M419 120L420 121L419 120M93.3333 121.667L93.6667 122.333L93.3333 121.667M229.333 121.667L229.667 122.333L229.333 121.667M282.333 121.667L282.667 122.333L282.333 121.667M418 121L419 122L418 121M94 123L95 124L94 123M230.333 123.667L230.667 124.333L230.333 123.667M281.333 123.667L281.667 124.333L281.333 123.667M417 123L418 124L417 123M95 124L96 125L95 124M416 124L415 127L416 127L416 124M96.3333 125.667L96.6667 126.333L96.3333 125.667z"/>
<path style="fill:#c0c0c0; stroke:none;" d="M416 125L417 126L416 125z"/>
<path style="fill:#de827f; stroke:none;" d="M231.333 126.667L231.667 127.333L231.333 126.667M280.333 126.667L280.667 127.333L280.333 126.667M97 127L98 128L97 127M414 127L415 128L414 127M98 128L99 129L98 128M232.333 128.667L232.667 129.333L232.333 128.667M279.333 128.667L279.667 129.333L279.333 128.667M413 128L414 129L413 128M99 129L100 130L99 129M100 130L101 131L100 130M411 130L412 131L411 130M101 131L103 134L101 131M233 131L234 132L233 131M278.333 131.667L278.667 132.333L278.333 131.667M410 131L411 132L410 131M409 132L408 135L409 132M234 133L234 136L235 136L234 133M277.333 133.667L277.667 134.333L277.333 133.667M103 134L104 135L103 134M104 135L105 136L104 135z"/>
<path style="fill:#c0c0c0; stroke:none;" d="M277 135L256 185L236 136C225.951 139.893 216.902 150.775 209 158C206.406 160.372 201.899 163.133 201.697 167.015C201.098 178.525 212.919 196.332 217.2 207C218.675 210.675 222.404 216.524 221.733 220.576C220.994 225.041 215.552 230.112 213.204 234C208.205 242.278 204.58 251.048 201 260C181.024 309.947 153.346 362.392 146 416C142.587 440.906 145.496 467.021 152.72 491C154.936 498.358 157.65 513.509 167.985 511.767C174.932 510.596 176.78 500.551 179 495C186.209 476.975 193.591 459.023 200.8 441C221.325 389.689 241.679 338.302 262.2 287C268.076 272.31 274.125 257.688 280 243C282.728 236.181 284.739 227.251 290 222C289.983 209.204 300.662 192.844 305.4 181C307.009 176.976 311.185 170.427 310.187 166.001C309.295 162.05 304.82 159.353 302 156.834C293.844 149.548 285.937 141.29 277 135z"/>
<path style="fill:#de827f; stroke:none;" d="M105.667 136.333L106.333 136.667L105.667 136.333z"/>
<path style="fill:#949494; stroke:none;" d="M233 136L234 137L233 136z"/>
<path style="fill:#de827f; stroke:none;" d="M405 136L406 137L405 136M107 137L108 138L107 137z"/>
<path style="fill:#949494; stroke:none;" d="M232 137L233 138L232 137z"/>
<path style="fill:#de827f; stroke:none;" d="M404 137L405 138L404 137M108 138L109 139L108 138M403 138L404 139L403 138M109 139L110 140L109 139M229 139L230 140L229 139M282 139L283 140L282 139M402 139L403 140L402 139M110 140L111 141L110 140M228 140L229 141L228 140M283 140L284 141L283 140M401 140L402 141L401 140M111 141L112 142L111 141M190 141L192 143L192 141L190 141M227 141L228 142L227 141M284 141L285 142L284 141M320 143L325 144C323.16 142.107 322.011 140.953 320 143M398 143L401 142L398 143M113 142L114 143L113 142M189 142L190 143L189 142M226 142L227 143L226 142M285 142L286 143L285 142z"/>
<path style="fill:#c0c0c0; stroke:none;" d="M399 142L400 143L399 142z"/>
<path style="fill:#de827f; stroke:none;" d="M114 143L115 144L114 143M187.667 143.333L188.333 143.667L187.667 143.333M192.333 143.667L192.667 144.333L192.333 143.667M225 143L226 144L225 143M319.333 143.667L319.667 144.333L319.333 143.667M397 143L398 144L397 143M115.667 144.333L116.333 144.667L115.667 144.333M186 144L187 145L186 144z"/>
<path style="fill:#949494; stroke:none;" d="M224 144L225 145L224 144z"/>
<path style="fill:#de827f; stroke:none;" d="M325 144L326 145L325 144M117 145L118 146L117 145M185 145L186 146L185 145z"/>
<path style="fill:#949494; stroke:none;" d="M223 145L224 146L223 145z"/>
<path style="fill:#de827f; stroke:none;" d="M326 145L327 146L326 145M394 145L395 146L394 145M118.667 146.333L119.333 146.667L118.667 146.333M184 146L185 147L184 146M193.333 146.667L193.667 147.333L193.333 146.667M318.333 146.667L318.667 147.333L318.333 146.667M327 146L328 147L327 146M392 146L393 147L392 146M120 147L121 148L120 147M182.667 147.333L183.333 147.667L182.667 147.333M220 147L221 148L220 147M291 147L292 148L291 147M328.667 147.333L329.333 147.667L328.667 147.333M391 147L392 148L391 147M122 148L123 149L122 148M181 148L182 149L181 148M194.333 148.667L194.667 149.333L194.333 148.667M219 148L220 149L219 148M292 148L293 149L292 148M317.333 148.667L317.667 149.333L317.333 148.667M330 148L331 149L330 148M389 148L390 149L389 148M124 149L125 150L124 149M179 149L180 150L179 149M218 149L219 150L218 149M293 149L294 150L293 149M332 149L333 150L332 149M387 149L388 150L387 149M126 150L127 151L126 150M177.667 150.333L178.333 150.667L177.667 150.333M217 150L218 151L217 150M294 150L295 151L294 150M333.667 150.333L334.333 150.667L333.667 150.333M385 150L386 151L385 150M128 151L129 152L128 151M175.667 151.333L176.333 151.667L175.667 151.333M195.333 151.667L195.667 152.333L195.333 151.667M216 151L217 152L216 151M316.333 151.667L316.667 152.333L316.333 151.667M335.667 151.333L336.333 151.667L335.667 151.333M130.667 152.333L131.333 152.667L130.667 152.333M173.667 152.333L174.333 152.667L173.667 152.333z"/>
<path style="fill:#949494; stroke:none;" d="M215 152L216 153L215 152z"/>
<path style="fill:#de827f; stroke:none;" d="M337.667 152.333L338.333 152.667L337.667 152.333M380.667 152.333L381.333 152.667L380.667 152.333M133.667 153.333L134.333 153.667L133.667 153.333M170.667 153.333L171.333 153.667L170.667 153.333M196.333 153.667L196.667 154.333L196.333 153.667z"/>
<path style="fill:#949494; stroke:none;" d="M214 153L215 154L214 153z"/>
<path style="fill:#de827f; stroke:none;" d="M315.333 153.667L315.667 154.333L315.333 153.667M340.667 153.333L341.333 153.667L340.667 153.333M377.667 153.333L378.333 153.667L377.667 153.333M136.667 154.333L137.333 154.667L136.667 154.333M167.667 154.333L168.333 154.667L167.667 154.333M299 154L300 155L299 154z"/>
<path style="fill:#c0c0c0; stroke:none;" d="M342 154L343 155L342 154z"/>
<path style="fill:#de827f; stroke:none;" d="M343.667 154.333L344.333 154.667L343.667 154.333M374 154L375 155L374 154M139 155L139 156L143 156L139 155M162 155L162 156L166 156L162 155M211 155L212 156L211 155M300 155L301 156L300 155M346 155L346 156L350 156L346 155M368 155L368 156L371 156L368 155M145 156L145 157L161 157L145 156M197.333 156.667L197.667 157.333L197.333 156.667M210 156L211 157L210 156M301 156L302 157L301 156M314.333 156.667L314.667 157.333L314.333 156.667M354 156L354 157L363 157L354 156M209 157L210 158L209 157M302 157L303 158L302 157M198.333 158.667L198.667 159.333L198.333 158.667M208 158L209 159L208 158M303 158L304 159L303 158M313.333 158.667L313.667 159.333L313.333 158.667M207 159L208 160L207 159z"/>
<path style="fill:#949494; stroke:none;" d="M206 160L207 161L206 160z"/>
<path style="fill:#de827f; stroke:none;" d="M199.333 161.667L199.667 162.333L199.333 161.667z"/>
<path style="fill:#949494; stroke:none;" d="M205 161L206 162L205 161z"/>
<path style="fill:#de827f; stroke:none;" d="M312.333 161.667L312.667 162.333L312.333 161.667M308 162L309 163L308 162M200 163L200 165L202 165L200 163M202 163L203 164L202 163M309 163L310 164L309 163M311 163L310 165L312 165L311 163z"/>
<path style="fill:#949494; stroke:none;" d="M288 222C280.851 240.431 273.142 258.645 265.8 277C262.825 284.437 256.912 293.95 256.514 302C256.108 310.194 263.2 322.865 267 330C272.287 323.449 274.762 312.888 277.681 305C282.526 291.91 288.06 279.074 292.95 266C295.596 258.925 301.544 249.591 301.657 242C301.757 235.244 293.7 224.888 288 222M252.004 225.836C242.301 228.738 241.987 246.794 253.957 243.562C263.228 241.058 262.999 222.548 252.004 225.836z"/>
<path style="fill:#c0c0c0; stroke:none;" d="M292 225L293 226L292 225M297 232L298 233L297 232M298 234L299 235L298 234M300 237L301 238L300 237M302 241C295.949 263.123 284.99 284.505 276.95 306C274.206 313.335 267.868 323.131 267.769 331C267.633 341.787 277.42 357.097 281.576 367C292.828 393.815 302.919 421.118 314.011 448C320.866 464.615 327.524 481.31 334.2 498C336.713 504.282 339.097 513.851 347.985 511.678C354.138 510.174 355.864 501.179 357.656 496C363.399 479.397 367 461.589 367 444C367 391.517 345.172 345.936 326 298C319.035 280.585 314 255.485 302 241z"/>
<path style="fill:#ffffff; stroke:none;" d="M255 304L228.424 371L194.281 456L179.4 493L170 511L170 512L342 512L342 511C331.265 501.773 326.626 478.064 321.4 465C306.315 427.291 290.884 389.709 275.8 352L262.2 318C260.371 313.428 259.055 306.984 255 304z"/>
</svg>
